<svg width="300" height="165" viewBox="0 0 300 165" fill="none" xmlns="http://www.w3.org/2000/svg">
<path d="M236.5 82.5C236.5 123.067 198.906 157.5 150.5 157.5C102.094 157.5 64.5 123.067 64.5 82.5C64.5 41.9333 102.094 7.5 150.5 7.5C198.906 7.5 236.5 41.9333 236.5 82.5Z" fill="white" stroke="#95D5B2" stroke-width="15"/>
<ellipse cx="150.5" cy="82.5" rx="50.5" ry="46.5" fill="white"/>
<path d="M197 82.5C197 105.668 176.498 125 150.5 125C124.502 125 104 105.668 104 82.5C104 59.3323 124.502 40 150.5 40C176.498 40 197 59.3323 197 82.5Z" stroke="#D8F3DC" stroke-opacity="0.9" stroke-width="8"/>
<path d="M36.687 62.8C40.367 62.8 43.607 63.38 46.407 64.54C49.247 65.66 51.707 67.32 53.787 69.52L48.807 76.18C47.087 74.38 45.227 73.04 43.227 72.16C41.267 71.24 39.027 70.78 36.507 70.78C34.307 70.78 32.727 71.14 31.767 71.86C30.807 72.58 30.327 73.46 30.327 74.5C30.327 75.34 30.707 76.06 31.467 76.66C32.267 77.22 33.547 77.7 35.307 78.1L41.967 79.6C45.927 80.52 48.827 81.86 50.667 83.62C52.507 85.38 53.427 87.72 53.427 90.64C53.427 93.44 52.707 95.82 51.267 97.78C49.827 99.7 47.847 101.16 45.327 102.16C42.807 103.12 39.927 103.6 36.687 103.6C32.687 103.6 29.027 102.96 25.707 101.68C22.387 100.36 19.747 98.64 17.787 96.52L22.767 89.62C24.247 91.34 26.247 92.78 28.767 93.94C31.287 95.06 33.887 95.62 36.567 95.62C40.727 95.62 42.807 94.4 42.807 91.96C42.807 91.12 42.487 90.42 41.847 89.86C41.247 89.26 40.127 88.76 38.487 88.36L31.167 86.74C28.927 86.26 26.927 85.58 25.167 84.7C23.447 83.82 22.087 82.66 21.087 81.22C20.087 79.74 19.587 77.9 19.587 75.7C19.587 73.22 20.267 71.02 21.627 69.1C22.987 67.14 24.947 65.6 27.507 64.48C30.067 63.36 33.127 62.8 36.687 62.8ZM57.9588 103V60.28H68.1588V78.46C69.0388 76.46 70.2988 74.96 71.9388 73.96C73.5788 72.92 75.4788 72.4 77.6388 72.4C80.7188 72.4 83.2188 73.3 85.1388 75.1C87.0588 76.9 88.0188 79.54 88.0188 83.02V103H77.8188V85.84C77.8188 83.68 77.4188 82.2 76.6188 81.4C75.8588 80.56 74.8388 80.14 73.5588 80.14C72.1188 80.14 70.8588 80.7 69.7788 81.82C68.6988 82.9 68.1588 84.7 68.1588 87.22V103H57.9588ZM108.606 103.6C103.606 103.6 99.6459 102.24 96.7259 99.52C93.8459 96.8 92.4059 92.96 92.4059 88C92.4059 84.72 93.0659 81.92 94.3859 79.6C95.7459 77.24 97.5859 75.46 99.9059 74.26C102.266 73.02 105.006 72.4 108.126 72.4C111.286 72.4 113.966 73.02 116.166 74.26C118.406 75.46 120.106 77.14 121.266 79.3C122.426 81.42 123.006 83.86 123.006 86.62C123.006 87.38 122.966 88.12 122.886 88.84C122.846 89.52 122.806 90.1 122.766 90.58H102.306C102.586 92.66 103.266 94.16 104.346 95.08C105.426 95.96 106.846 96.4 108.606 96.4C110.126 96.4 111.326 96.1 112.206 95.5C113.126 94.9 113.806 94.06 114.246 92.98L122.406 95.68C121.846 97.4 120.866 98.86 119.466 100.06C118.106 101.22 116.466 102.1 114.546 102.7C112.666 103.3 110.686 103.6 108.606 103.6ZM108.126 79.54C104.886 79.54 102.966 81.4 102.366 85.12H113.346C112.906 81.4 111.166 79.54 108.126 79.54ZM127.512 103V73H136.632L136.932 79.06C137.852 76.86 139.192 75.2 140.952 74.08C142.712 72.96 144.792 72.4 147.192 72.4C150.272 72.4 152.772 73.3 154.692 75.1C156.612 76.9 157.572 79.54 157.572 83.02V103H147.372V85.72C147.372 83.64 146.972 82.2 146.172 81.4C145.372 80.6 144.352 80.2 143.112 80.2C141.632 80.2 140.352 80.72 139.272 81.76C138.232 82.8 137.712 84.58 137.712 87.1V103H127.512ZM182.239 96.34C185.719 96.34 188.379 97.08 190.219 98.56C192.099 100 193.039 102.08 193.039 104.8C193.039 108.56 191.539 111.34 188.539 113.14C185.579 114.98 181.579 115.9 176.539 115.9C171.099 115.9 167.179 115.22 164.779 113.86C162.379 112.5 161.179 110.66 161.179 108.34C161.179 106.98 161.619 105.82 162.499 104.86C163.419 103.9 164.879 103.24 166.879 102.88C163.959 101.8 162.499 99.78 162.499 96.82C162.499 95.42 162.919 94.2 163.759 93.16C164.599 92.08 165.759 91.3 167.239 90.82C164.039 89.06 162.439 86.32 162.439 82.6C162.439 79.36 163.699 76.86 166.219 75.1C168.779 73.3 172.359 72.4 176.959 72.4C179.279 72.4 181.379 72.64 183.259 73.12C183.419 71.68 183.819 70.34 184.459 69.1C185.139 67.86 186.059 66.86 187.219 66.1C188.419 65.3 189.879 64.9 191.599 64.9C191.719 64.9 191.859 64.92 192.019 64.96C192.179 64.96 192.359 64.96 192.559 64.96L193.399 71.8C192.959 71.68 192.479 71.62 191.959 71.62C190.559 71.62 189.439 71.9 188.599 72.46C187.759 73.02 187.199 73.74 186.919 74.62C189.919 76.38 191.419 79.04 191.419 82.6C191.419 85.84 190.139 88.34 187.579 90.1C185.059 91.86 181.519 92.74 176.959 92.74C174.879 92.74 172.999 92.56 171.319 92.2C169.999 92.6 169.339 93.3 169.339 94.3C169.339 95.66 170.459 96.34 172.699 96.34H182.239ZM176.959 78.22C175.639 78.22 174.559 78.6 173.719 79.36C172.919 80.12 172.519 81.2 172.519 82.6C172.519 83.96 172.919 85.02 173.719 85.78C174.559 86.54 175.639 86.92 176.959 86.92C178.239 86.92 179.299 86.54 180.139 85.78C180.979 85.02 181.399 83.96 181.399 82.6C181.399 81.2 180.979 80.12 180.139 79.36C179.299 78.6 178.239 78.22 176.959 78.22ZM176.599 109.3C179.479 109.3 181.619 109 183.019 108.4C184.459 107.84 185.179 107.12 185.179 106.24C185.179 105.64 184.939 105.16 184.459 104.8C184.019 104.48 183.239 104.32 182.119 104.32H171.379C170.619 104.32 169.999 104.52 169.519 104.92C169.079 105.32 168.859 105.82 168.859 106.42C168.859 107.34 169.539 108.04 170.899 108.52C172.259 109.04 174.159 109.3 176.599 109.3ZM212.093 62.8C215.773 62.8 219.013 63.38 221.813 64.54C224.653 65.66 227.113 67.32 229.193 69.52L224.213 76.18C222.493 74.38 220.633 73.04 218.633 72.16C216.673 71.24 214.433 70.78 211.913 70.78C209.713 70.78 208.133 71.14 207.173 71.86C206.213 72.58 205.733 73.46 205.733 74.5C205.733 75.34 206.113 76.06 206.873 76.66C207.673 77.22 208.953 77.7 210.713 78.1L217.373 79.6C221.333 80.52 224.233 81.86 226.073 83.62C227.913 85.38 228.833 87.72 228.833 90.64C228.833 93.44 228.113 95.82 226.673 97.78C225.233 99.7 223.253 101.16 220.733 102.16C218.213 103.12 215.333 103.6 212.093 103.6C208.093 103.6 204.433 102.96 201.113 101.68C197.793 100.36 195.153 98.64 193.193 96.52L198.173 89.62C199.653 91.34 201.653 92.78 204.173 93.94C206.693 95.06 209.293 95.62 211.973 95.62C216.133 95.62 218.213 94.4 218.213 91.96C218.213 91.12 217.893 90.42 217.253 89.86C216.653 89.26 215.533 88.76 213.893 88.36L206.573 86.74C204.333 86.26 202.333 85.58 200.573 84.7C198.853 83.82 197.493 82.66 196.493 81.22C195.493 79.74 194.993 77.9 194.993 75.7C194.993 73.22 195.673 71.02 197.033 69.1C198.393 67.14 200.353 65.6 202.913 64.48C205.473 63.36 208.533 62.8 212.093 62.8ZM233.365 103V60.28H243.565V78.46C244.445 76.46 245.705 74.96 247.345 73.96C248.985 72.92 250.885 72.4 253.045 72.4C256.125 72.4 258.625 73.3 260.545 75.1C262.465 76.9 263.425 79.54 263.425 83.02V103H253.225V85.84C253.225 83.68 252.825 82.2 252.025 81.4C251.265 80.56 250.245 80.14 248.965 80.14C247.525 80.14 246.265 80.7 245.185 81.82C244.105 82.9 243.565 84.7 243.565 87.22V103H233.365ZM274.472 69.52C272.392 69.52 270.872 69.14 269.912 68.38C268.992 67.58 268.532 66.34 268.532 64.66C268.532 62.94 268.992 61.7 269.912 60.94C270.872 60.14 272.392 59.74 274.472 59.74C276.512 59.74 278.012 60.14 278.972 60.94C279.932 61.7 280.412 62.94 280.412 64.66C280.412 66.34 279.932 67.58 278.972 68.38C278.012 69.14 276.512 69.52 274.472 69.52ZM279.572 73V103H269.372V73H279.572Z" fill="#2D6A4F" fill-opacity="0.8"/>
</svg>
