<svg width="308" height="165" viewBox="0 0 308 165" fill="none" xmlns="http://www.w3.org/2000/svg">
<path d="M179.5 82.5C179.5 123.067 141.906 157.5 93.5 157.5C45.0938 157.5 7.5 123.067 7.5 82.5C7.5 41.9333 45.0938 7.5 93.5 7.5C141.906 7.5 179.5 41.9333 179.5 82.5Z" fill="white" stroke="#95D5B2" stroke-width="15"/>
<ellipse cx="93.5" cy="84.5" rx="50.5" ry="46.5" fill="white"/>
<path d="M140 84.5C140 107.668 119.498 127 93.5 127C67.5016 127 47 107.668 47 84.5C47 61.3323 67.5016 42 93.5 42C119.498 42 140 61.3323 140 84.5Z" stroke="#D8F3DC" stroke-opacity="0.9" stroke-width="8"/>
<path d="M44.687 64.8C48.367 64.8 51.607 65.38 54.407 66.54C57.247 67.66 59.707 69.32 61.787 71.52L56.807 78.18C55.087 76.38 53.227 75.04 51.227 74.16C49.267 73.24 47.027 72.78 44.507 72.78C42.307 72.78 40.727 73.14 39.767 73.86C38.807 74.58 38.327 75.46 38.327 76.5C38.327 77.34 38.707 78.06 39.467 78.66C40.267 79.22 41.547 79.7 43.307 80.1L49.967 81.6C53.927 82.52 56.827 83.86 58.667 85.62C60.507 87.38 61.427 89.72 61.427 92.64C61.427 95.44 60.707 97.82 59.267 99.78C57.827 101.7 55.847 103.16 53.327 104.16C50.807 105.12 47.927 105.6 44.687 105.6C40.687 105.6 37.027 104.96 33.707 103.68C30.387 102.36 27.747 100.64 25.787 98.52L30.767 91.62C32.247 93.34 34.247 94.78 36.767 95.94C39.287 97.06 41.887 97.62 44.567 97.62C48.727 97.62 50.807 96.4 50.807 93.96C50.807 93.12 50.487 92.42 49.847 91.86C49.247 91.26 48.127 90.76 46.487 90.36L39.167 88.74C36.927 88.26 34.927 87.58 33.167 86.7C31.447 85.82 30.087 84.66 29.087 83.22C28.087 81.74 27.587 79.9 27.587 77.7C27.587 75.22 28.267 73.02 29.627 71.1C30.987 69.14 32.947 67.6 35.507 66.48C38.067 65.36 41.127 64.8 44.687 64.8ZM65.9588 105V62.28H76.1588V80.46C77.0388 78.46 78.2988 76.96 79.9388 75.96C81.5788 74.92 83.4788 74.4 85.6388 74.4C88.7188 74.4 91.2188 75.3 93.1388 77.1C95.0588 78.9 96.0188 81.54 96.0188 85.02V105H85.8188V87.84C85.8188 85.68 85.4188 84.2 84.6188 83.4C83.8588 82.56 82.8388 82.14 81.5588 82.14C80.1188 82.14 78.8588 82.7 77.7788 83.82C76.6988 84.9 76.1588 86.7 76.1588 89.22V105H65.9588ZM116.606 105.6C111.606 105.6 107.646 104.24 104.726 101.52C101.846 98.8 100.406 94.96 100.406 90C100.406 86.72 101.066 83.92 102.386 81.6C103.746 79.24 105.586 77.46 107.906 76.26C110.266 75.02 113.006 74.4 116.126 74.4C119.286 74.4 121.966 75.02 124.166 76.26C126.406 77.46 128.106 79.14 129.266 81.3C130.426 83.42 131.006 85.86 131.006 88.62C131.006 89.38 130.966 90.12 130.886 90.84C130.846 91.52 130.806 92.1 130.766 92.58H110.306C110.586 94.66 111.266 96.16 112.346 97.08C113.426 97.96 114.846 98.4 116.606 98.4C118.126 98.4 119.326 98.1 120.206 97.5C121.126 96.9 121.806 96.06 122.246 94.98L130.406 97.68C129.846 99.4 128.866 100.86 127.466 102.06C126.106 103.22 124.466 104.1 122.546 104.7C120.666 105.3 118.686 105.6 116.606 105.6ZM116.126 81.54C112.886 81.54 110.966 83.4 110.366 87.12H121.346C120.906 83.4 119.166 81.54 116.126 81.54ZM135.512 105V75H144.632L144.932 81.06C145.852 78.86 147.192 77.2 148.952 76.08C150.712 74.96 152.792 74.4 155.192 74.4C158.272 74.4 160.772 75.3 162.692 77.1C164.612 78.9 165.572 81.54 165.572 85.02V105H155.372V87.72C155.372 85.64 154.972 84.2 154.172 83.4C153.372 82.6 152.352 82.2 151.112 82.2C149.632 82.2 148.352 82.72 147.272 83.76C146.232 84.8 145.712 86.58 145.712 89.1V105H135.512ZM190.239 98.34C193.719 98.34 196.379 99.08 198.219 100.56C200.099 102 201.039 104.08 201.039 106.8C201.039 110.56 199.539 113.34 196.539 115.14C193.579 116.98 189.579 117.9 184.539 117.9C179.099 117.9 175.179 117.22 172.779 115.86C170.379 114.5 169.179 112.66 169.179 110.34C169.179 108.98 169.619 107.82 170.499 106.86C171.419 105.9 172.879 105.24 174.879 104.88C171.959 103.8 170.499 101.78 170.499 98.82C170.499 97.42 170.919 96.2 171.759 95.16C172.599 94.08 173.759 93.3 175.239 92.82C172.039 91.06 170.439 88.32 170.439 84.6C170.439 81.36 171.699 78.86 174.219 77.1C176.779 75.3 180.359 74.4 184.959 74.4C187.279 74.4 189.379 74.64 191.259 75.12C191.419 73.68 191.819 72.34 192.459 71.1C193.139 69.86 194.059 68.86 195.219 68.1C196.419 67.3 197.879 66.9 199.599 66.9C199.719 66.9 199.859 66.92 200.019 66.96C200.179 66.96 200.359 66.96 200.559 66.96L201.399 73.8C200.959 73.68 200.479 73.62 199.959 73.62C198.559 73.62 197.439 73.9 196.599 74.46C195.759 75.02 195.199 75.74 194.919 76.62C197.919 78.38 199.419 81.04 199.419 84.6C199.419 87.84 198.139 90.34 195.579 92.1C193.059 93.86 189.519 94.74 184.959 94.74C182.879 94.74 180.999 94.56 179.319 94.2C177.999 94.6 177.339 95.3 177.339 96.3C177.339 97.66 178.459 98.34 180.699 98.34H190.239ZM184.959 80.22C183.639 80.22 182.559 80.6 181.719 81.36C180.919 82.12 180.519 83.2 180.519 84.6C180.519 85.96 180.919 87.02 181.719 87.78C182.559 88.54 183.639 88.92 184.959 88.92C186.239 88.92 187.299 88.54 188.139 87.78C188.979 87.02 189.399 85.96 189.399 84.6C189.399 83.2 188.979 82.12 188.139 81.36C187.299 80.6 186.239 80.22 184.959 80.22ZM184.599 111.3C187.479 111.3 189.619 111 191.019 110.4C192.459 109.84 193.179 109.12 193.179 108.24C193.179 107.64 192.939 107.16 192.459 106.8C192.019 106.48 191.239 106.32 190.119 106.32H179.379C178.619 106.32 177.999 106.52 177.519 106.92C177.079 107.32 176.859 107.82 176.859 108.42C176.859 109.34 177.539 110.04 178.899 110.52C180.259 111.04 182.159 111.3 184.599 111.3ZM220.093 64.8C223.773 64.8 227.013 65.38 229.813 66.54C232.653 67.66 235.113 69.32 237.193 71.52L232.213 78.18C230.493 76.38 228.633 75.04 226.633 74.16C224.673 73.24 222.433 72.78 219.913 72.78C217.713 72.78 216.133 73.14 215.173 73.86C214.213 74.58 213.733 75.46 213.733 76.5C213.733 77.34 214.113 78.06 214.873 78.66C215.673 79.22 216.953 79.7 218.713 80.1L225.373 81.6C229.333 82.52 232.233 83.86 234.073 85.62C235.913 87.38 236.833 89.72 236.833 92.64C236.833 95.44 236.113 97.82 234.673 99.78C233.233 101.7 231.253 103.16 228.733 104.16C226.213 105.12 223.333 105.6 220.093 105.6C216.093 105.6 212.433 104.96 209.113 103.68C205.793 102.36 203.153 100.64 201.193 98.52L206.173 91.62C207.653 93.34 209.653 94.78 212.173 95.94C214.693 97.06 217.293 97.62 219.973 97.62C224.133 97.62 226.213 96.4 226.213 93.96C226.213 93.12 225.893 92.42 225.253 91.86C224.653 91.26 223.533 90.76 221.893 90.36L214.573 88.74C212.333 88.26 210.333 87.58 208.573 86.7C206.853 85.82 205.493 84.66 204.493 83.22C203.493 81.74 202.993 79.9 202.993 77.7C202.993 75.22 203.673 73.02 205.033 71.1C206.393 69.14 208.353 67.6 210.913 66.48C213.473 65.36 216.533 64.8 220.093 64.8ZM241.365 105V62.28H251.565V80.46C252.445 78.46 253.705 76.96 255.345 75.96C256.985 74.92 258.885 74.4 261.045 74.4C264.125 74.4 266.625 75.3 268.545 77.1C270.465 78.9 271.425 81.54 271.425 85.02V105H261.225V87.84C261.225 85.68 260.825 84.2 260.025 83.4C259.265 82.56 258.245 82.14 256.965 82.14C255.525 82.14 254.265 82.7 253.185 83.82C252.105 84.9 251.565 86.7 251.565 89.22V105H241.365ZM282.472 71.52C280.392 71.52 278.872 71.14 277.912 70.38C276.992 69.58 276.532 68.34 276.532 66.66C276.532 64.94 276.992 63.7 277.912 62.94C278.872 62.14 280.392 61.74 282.472 61.74C284.512 61.74 286.012 62.14 286.972 62.94C287.932 63.7 288.412 64.94 288.412 66.66C288.412 68.34 287.932 69.58 286.972 70.38C286.012 71.14 284.512 71.52 282.472 71.52ZM287.572 75V105H277.372V75H287.572Z" fill="#2D6A4F" fill-opacity="0.8"/>
</svg>
